<?xml version="1.0" standalone="no"?><!DOCTYPE svg PUBLIC "-//W3C//DTD SVG 1.1//EN" "http://www.w3.org/Graphics/SVG/1.1/DTD/svg11.dtd"><svg class="icon" width="200px" height="200.00px" viewBox="0 0 1024 1024" version="1.1" xmlns="http://www.w3.org/2000/svg"><path fill="#2e2e2e" d="M873.48 933.77c-16.22 0-29.36-14.33-29.36-32v-754c0-11.05-8.22-20-18.35-20H230.75c-16.22 0-29.36-14.33-29.36-32s13.15-32 29.36-32h598.69c40.54 0 73.4 35.82 73.4 80v758c0.01 17.67-13.14 32-29.36 32z"  /><path fill="#2e2e2e" d="M713.71 224.22c8.82 0 16 7.18 16 16v640c0 8.82-7.18 16-16 16h-534c-8.82 0-16-7.18-16-16v-640c0-8.82 7.18-16 16-16h534m0-64h-534c-44.18 0-80 35.82-80 80v640c0 44.18 35.82 80 80 80h534c44.18 0 80-35.82 80-80v-640c0-44.18-35.82-80-80-80z"  /><path fill="#2e2e2e" d="M446.71 310.22c-17.67 0-32 14.33-32 32v436c0 17.67 14.33 32 32 32s32-14.33 32-32v-436c0-17.67-14.33-32-32-32z"  /><path fill="#2e2e2e" d="M668.55 528.22h-436c-17.67 0-32 14.33-32 32s14.33 32 32 32h436c17.67 0 32-14.33 32-32s-14.32-32-32-32z"  /></svg>